<?xml version="1.0" encoding="UTF-8" standalone="no"?>
<!-- Created with Inkscape (http://www.inkscape.org/) -->

<svg
   version="1.1"
   id="svg1"
   width="600"
   height="600"
   viewBox="0 0 600 600"
   sodipodi:docname="logo_noname.svg"
   inkscape:version="1.4.2 (2aeb623e1d, 2025-05-12)"
   xmlns:inkscape="http://www.inkscape.org/namespaces/inkscape"
   xmlns:sodipodi="http://sodipodi.sourceforge.net/DTD/sodipodi-0.dtd"
   xmlns="http://www.w3.org/2000/svg"
   xmlns:svg="http://www.w3.org/2000/svg">
  <defs
     id="defs1" />
  <sodipodi:namedview
     id="namedview1"
     pagecolor="#ffffff"
     bordercolor="#000000"
     borderopacity="0.25"
     inkscape:showpageshadow="2"
     inkscape:pageopacity="0.0"
     inkscape:pagecheckerboard="0"
     inkscape:deskcolor="#d1d1d1"
     inkscape:zoom="0.85449219"
     inkscape:cx="511.41486"
     inkscape:cy="418.37714"
     inkscape:window-width="1982"
     inkscape:window-height="1083"
     inkscape:window-x="538"
     inkscape:window-y="1112"
     inkscape:window-maximized="1"
     inkscape:current-layer="g1" />
  <g
     inkscape:groupmode="layer"
     inkscape:label="Image"
     id="g1">
    <g
       id="g2"
       transform="translate(-191.92686,-15.213714)">
      <path
         style="fill:#e1d5aa"
         d="m 409,547.35216 c -41.93115,-6.2976 -75.78012,-26.91713 -97.82111,-59.58894 -9.54964,-14.15564 -15.52295,-28.87775 -19.25768,-47.46343 -2.07556,-10.32894 -2.16369,-13.08755 -2.02134,-63.27414 0.0819,-28.8609 0.49587,-52.82139 0.92002,-53.24554 0.42414,-0.42414 49.80068,-0.88568 109.72564,-1.02564 L 509.5,322.5 510,215.71341 c 0.43748,-93.4343 0.68756,-106.91184 2,-107.78827 0.97033,-0.64796 18.9791,-0.8701 51,-0.62908 49.40627,0.37187 49.51813,0.37743 59.07364,2.93592 18.41978,4.9319 30.77728,10.9816 44.13862,21.60837 20.96354,16.67308 35.20701,40.22454 40.42818,66.84766 2.07655,10.58848 2.28519,30.33039 0.44189,41.81199 -3.80615,23.70794 -15.41035,45.89892 -32.66291,62.46206 -13.65089,13.1054 -29.6822,22.26311 -48.52618,27.72004 l -9.39324,2.72013 -50.97279,0.35036 c -38.19538,0.26253 -51.16378,0.65079 -51.73469,1.54888 -0.41904,0.65919 -0.76879,48.51289 -0.77721,106.34154 -0.0138,94.9452 -0.16873,105.20188 -1.5971,105.75 -1.67049,0.64103 -98.13426,0.60256 -102.41821,-0.0408 z m 131.12739,-0.69867 c -0.83644,-1.00784 -1.07069,-24.42496 -0.88294,-88.26264 L 539.5,371.5 h 96.4863 c 84.98002,0 96.51822,0.17888 96.75388,1.5 0.14717,0.825 -4.12167,7.66927 -9.4863,15.20948 -5.36463,7.54022 -13.60484,19.24022 -18.31157,26 -7.60087,10.91634 -23.02943,32.89498 -78.12365,111.29052 l -15.46099,22 -35.0459,0.26264 c -28.71593,0.21521 -35.25153,0.0149 -36.18438,-1.10915 z M 367.24953,290.40676 c -35.9983,-5.67533 -64.17591,-30.53896 -74.32138,-65.58039 -3.02672,-10.45399 -3.7559,-30.63523 -1.50778,-41.73016 4.05749,-20.02451 13.08799,-36.62877 27.31214,-50.21844 35.23547,-33.663766 89.03665,-33.229477 124.61468,1.0059 12.31298,11.84831 21.3428,27.12049 25.78857,43.61633 2.98305,11.06852 2.9541,33.30571 -0.0584,44.85418 -7.96905,30.54944 -30.6685,55.31699 -59.07735,64.45975 -13.52418,4.35246 -29.44513,5.69049 -42.75047,3.59283 z"
         id="path8"
         sodipodi:nodetypes="sssssscssssssssscsssssssscssssscssssssssssss" />
      <path
         style="fill:#a1a7a2"
         d="M 399,544.87197 C 374.64227,539.77986 354.92788,530.25056 335.80131,514.32376 314.11383,496.26448 299.07995,471.00577 292.75449,442 c -1.9169,-8.79006 -2.10201,-13.49562 -2.47705,-62.96666 -0.37978,-50.09682 -0.29471,-53.54754 1.34974,-54.75 C 293.0301,323.2575 315.21471,323 402.19113,323 H 511 V 216.10699 c 0,-96.54996 0.15306,-106.95175 1.58179,-107.5 2.68786,-1.03143 93.49735,-0.66019 100.08603,0.40917 9.55587,1.55093 23.00154,5.73269 32.01813,9.95801 22.3331,10.46564 43.5545,32.43093 53.64536,55.52583 16.51007,37.78649 11.62012,82.1591 -12.64454,114.73974 -15.41056,20.69206 -36.39779,34.47249 -63.18677,41.48908 l -10,2.61921 -49.75,0.39994 -49.75,0.39994 v 104.84426 c 0,57.66434 -0.27314,105.55606 -0.60699,106.42604 -0.54314,1.41541 -6.03895,1.57432 -52.25,1.51079 C 412.64102,546.86369 407.73824,546.69875 399,544.87197 Z M 541,459.5 V 373 h 95.10699 c 82.54509,0 95.03371,0.19097 94.55217,1.44583 -0.30515,0.79521 -7.92978,11.93271 -16.94362,24.75 C 704.7017,412.01312 687.21174,436.9 674.84898,454.5 662.48621,472.1 642.9502,499.88674 631.43561,516.2483 L 610.5,545.9966 575.75,545.9983 541,546 Z M 364.90866,288.446 c -54.07164,-9.7905 -85.94773,-63.82084 -68.89604,-116.77959 9.7076,-30.14967 34.23488,-52.69006 65.62457,-60.30851 10.23445,-2.48395 29.54958,-2.22933 39.86281,0.52549 8.88764,2.37402 22.07599,8.35277 29.1283,13.20489 7.59329,5.22432 17.8166,15.46855 23.12388,23.17122 6.65233,9.65478 9.68936,15.87402 12.908,26.43303 2.41502,7.92266 2.69158,10.41486 2.75288,24.80747 0.0588,13.8028 -0.24458,17.08419 -2.20918,23.89503 -6.40392,22.20101 -19.60928,40.45284 -38.08677,52.64177 -17.47351,11.52664 -42.43718,16.35122 -64.20845,12.4092 z"
         id="path7"
         sodipodi:nodetypes="sssssscssssssscccssssccsssssccccsssssssssss" />
      <path
         style="fill:#dab74b"
         d="m 404,545.29922 c -7.96105,-1.36424 -23.33258,-5.80337 -30.83255,-8.90411 C 348.57649,526.22838 327.85776,509.53755 313.09345,488 303.43399,473.90919 297.44084,459.89772 293.70611,442.67406 291.58414,432.88802 291.5,430.44054 291.5,378.5 v -54 l 110,-0.5 110,-0.5 0.2545,-107.25 0.25451,-107.25 47.74549,0.008 c 49.78823,0.008 54.15457,0.29693 68.91332,4.56207 35.7215,10.32318 64.97126,40.75432 75.06148,78.09317 2.4559,9.08805 2.65667,11.32225 2.63633,29.33721 -0.0202,17.87483 -0.24173,20.31985 -2.65835,29.33721 -10.76655,40.17436 -40.34357,69.0674 -81.70728,79.81777 -8.0535,2.09309 -11.15276,2.23897 -59,2.77708 L 512.5,333.5 512.24546,439.75 511.99091,546 459.24546,545.86382 C 430.23546,545.78892 405.375,545.53485 404,545.29922 Z M 541,459.5 V 373 h 95.10699 c 82.54509,0 95.03371,0.19097 94.55217,1.44583 -0.30515,0.79521 -7.92978,11.93271 -16.94362,24.75 C 704.7017,412.01312 687.21174,436.9 674.84898,454.5 662.48621,472.1 642.9502,499.88674 631.43561,516.2483 L 610.5,545.9966 575.75,545.9983 541,546 Z M 364.90866,288.446 c -54.07164,-9.7905 -85.94773,-63.82084 -68.89604,-116.77959 9.7076,-30.14967 34.23488,-52.69006 65.62457,-60.30851 10.23445,-2.48395 29.54958,-2.22933 39.86281,0.52549 8.88764,2.37402 22.07599,8.35277 29.1283,13.20489 7.59329,5.22432 17.8166,15.46855 23.12388,23.17122 6.65233,9.65478 9.68936,15.87402 12.908,26.43303 2.41502,7.92266 2.69158,10.41486 2.75288,24.80747 0.0588,13.8028 -0.24458,17.08419 -2.20918,23.89503 -6.40392,22.20101 -19.60928,40.45284 -38.08677,52.64177 -17.47351,11.52664 -42.43718,16.35122 -64.20845,12.4092 z"
         id="path6"
         sodipodi:nodetypes="sssssccccccsssssccccssccsssssccccsssssssssss" />
      <path
         style="fill:#798584"
         d="m 404,545.29922 c -7.96105,-1.36424 -23.33258,-5.80337 -30.83255,-8.90411 C 348.57649,526.22838 327.85776,509.53755 313.09345,488 303.43399,473.90919 297.44084,459.89772 293.70611,442.67406 291.58414,432.88802 291.5,430.44054 291.5,378.5 v -54 l 110,-0.5 110,-0.5 0.2545,-107.25 0.25451,-107.25 47.74549,0.008 c 49.78823,0.008 54.15457,0.29693 68.91332,4.56207 35.7215,10.32318 64.97126,40.75432 75.06148,78.09317 2.4559,9.08805 2.65667,11.32225 2.63633,29.33721 -0.0202,17.87483 -0.24173,20.31985 -2.65835,29.33721 -10.76655,40.17436 -40.34357,69.0674 -81.70728,79.81777 -8.0535,2.09309 -11.15276,2.23897 -59,2.77708 L 512.5,333.5 512.24546,439.75 511.99091,546 459.24546,545.86382 c -29.01,-0.0749 -53.87046,-0.32897 -55.24546,-0.5646 z"
         id="path5"
         sodipodi:nodetypes="sssssccccccsssssccccss" />
      <path
         style="fill:#59696f"
         d="M 407,545.32832 C 356.00757,536.99952 314.73185,504.19687 299.00185,459.5 c -6.9726,-19.81269 -7.22008,-22.38897 -7.71999,-80.36516 -0.24835,-28.80084 -0.0658,-52.75087 0.40559,-53.22229 0.47141,-0.47141 36.84709,-0.97442 80.83483,-1.1178 43.98775,-0.14338 93.3632,-0.40004 109.72322,-0.57037 L 511.991,323.91471 512.2455,216.70735 512.5,109.5 H 562 c 44.3423,0 50.27693,0.18848 56.95643,1.80891 16.67339,4.04493 30.62514,10.26003 42.13074,18.768 8.13764,6.0175 21.19637,19.50231 26.59263,27.4603 26.75278,39.45293 25.2771,93.50143 -3.6082,132.15531 -12.29544,16.45358 -31.26026,30.02099 -51.42681,36.79068 -15.67508,5.26195 -17.95394,5.44314 -69.85804,5.55426 -26.61834,0.057 -48.93261,0.43465 -49.58727,0.83926 -0.90566,0.55973 -1.25118,26.06991 -1.44489,106.67946 L 511.5,545.5 l -51,0.11833 c -28.05,0.0651 -52.125,-0.0654 -53.5,-0.29001 z"
         id="path4"
         sodipodi:nodetypes="cssssscccssssssssscsc" />
      <path
         style="fill:#2c4856"
         d="M 398.77133,543.01886 C 372.23612,537.424 349.88447,525.65816 330.92251,507.30347 314.95493,491.84726 304.65299,475.37766 298.16022,454.92675 292.51458,437.14412 291.91747,429.05378 292.22436,374.5 l 0.27564,-49 108.90291,-0.25446 c 78.45413,-0.18332 109.27956,-0.56705 110.25,-1.37245 C 512.76692,322.94855 513,304.3404 513,216.32678 V 109.89844 l 50.75,0.33285 50.75,0.33284 9.77735,2.66727 c 36.12339,9.8545 65.08811,37.19395 76.56482,72.2686 3.00798,9.19285 5.15846,23.77151 5.15193,34.92622 -0.0232,39.73127 -17.53942,72.92375 -49.45973,93.72431 -10.43519,6.79999 -20.08076,11.02266 -33.4606,14.6485 -9.56311,2.59153 -9.63058,2.59504 -60.57377,3.14769 l -51,0.55328 -0.25454,106.25 -0.25455,106.25 -51.74545,-0.0704 c -46.24912,-0.0629 -52.67261,-0.26585 -60.47413,-1.91078 z"
         id="path3"
         sodipodi:nodetypes="sssscssscccsssssscccsss" />
      <path
         style="fill:#053750"
         d="M 417.5,543.91609 C 396.86516,543.11282 383.22091,539.63394 365,530.53014 341.47238,518.77493 320.59671,499.19732 308.47292,477.51796 302.71542,467.22258 297.15525,451.10687 294.98906,438.43604 293.18385,427.87668 293,422.14265 293,376.40063 V 326 h 108.92857 c 98.8204,0 109.07804,-0.14947 110.53931,-1.61074 1.46082,-1.46082 1.60328,-11.02408 1.53058,-102.75 -0.0441,-55.62659 -0.0618,-103.27676 -0.0393,-105.88926 L 514,111 h 47.93462 c 39.02684,0 49.29406,0.28262 55.25,1.52082 23.12549,4.80766 40.71878,14.34846 56.69982,30.74818 9.78689,10.0433 14.48497,16.61573 20.19676,28.25448 6.8307,13.91875 9.91621,26.56354 10.60888,43.47652 0.95279,23.26447 -2.67452,40.87599 -12.04882,58.5 -14.85722,27.93211 -39.16042,46.71917 -70.64126,54.60769 -9.2802,2.32544 -10.65684,2.38723 -59.5,2.67057 -45.16927,0.26203 -50.12077,0.45014 -51.25,1.94703 -0.98151,1.30106 -1.25,24.16913 -1.25,106.46584 V 544 l -9.75,0.006 c -5.3625,0.003 -22.8,0.11582 -38.75,0.25 -15.95,0.13417 -35.75,-0.0188 -44,-0.33996 z"
         id="path2"
         sodipodi:nodetypes="ssssscsssscssssssssssccsss" />
    </g>
  </g>
</svg>
